#!OML:ASF E:\motion texture\Top Level 1\Subject 1\Session 1\male.ASF
:FULLY-SPECIFIED
:DEGREES
574
root 1.96491 18.1003 4.96438 452.966 -83.832 -448.316
lowerback -1.22327 1.14843 9.56678
upperback -3.6515 1.50394 3.91425
thorax -2.97486 0.463689 -1.29755
lowerneck -7.06034 -5.07459 -9.09619
upperneck -12.8591 -6.06434 8.84447
head -2.10841 -3.02958 4.14593
rclavicle -4.72114e-015 3.18055e-015
rhumerus 36.809 -5.96843 -86.1098
rradius 52.97
rwrist -32.9526
rhand 4.35868 -26.1745
rfingers 7.12502
rthumb 29.7581 -53.8053
lclavicle -4.72114e-015 3.18055e-015
lhumerus -9.34997 -19.5591 86.5198
lradius 47.3201
lwrist -19.3751
lhand -13.9274 18.0821
lfingers 7.12502
lthumb 12.1991 47.7064
rfemur -13.3448 -0.351182 29.11
rtibia 16.7094
rfoot -6.25167 -14.1734
rtoes 21.9318
lfemur -19.9668 -0.490195 -8.76016
ltibia 53.4382
lfoot 0.552629 0.235015
ltoes -16.9129
575
root 1.82536 18.1124 4.94341 452.674 -83.6748 -448.015
lowerback -1.24284 1.19773 9.79171
upperback -3.7304 1.57158 3.86775
thorax -3.03579 0.484657 -1.46914
lowerneck -6.93168 -5.10353 -9.05397
upperneck -13.2124 -6.10608 8.96001
head -2.22594 -3.06139 4.1866
rclavicle 8.00108e-015 -4.37326e-014
rhumerus 38.6509 -5.93672 -86.0186
rradius 54.1467
rwrist -33.1139
rhand 3.0789 -25.9884
rfingers 7.12502
rthumb 28.536 -53.831
lclavicle 8.00108e-015 -4.37326e-014
lhumerus -8.86851 -19.8089 86.2391
lradius 48.4245
lwrist -18.9754
lhand -14.1424 18.1002
lfingers 7.12502
lthumb 11.9918 47.7367
rfemur -12.6205 -0.213179 29.3853
rtibia 16.3231
rfoot -6.57163 -14.2754
rtoes 21.7604
lfemur -20.7002 -0.439187 -8.57081
ltibia 53.1347
lfoot 0.123605 0.629516
ltoes -16.7652
576
root 1.68568 18.1234 4.92284 452.404 -83.5261 -447.729
lowerback -1.26575 1.24404 10.0041
upperback -3.80631 1.63464 3.81856
thorax -3.09187 0.503761 -1.63653
lowerneck -6.808 -5.13108 -9.01136
upperneck -13.5721 -6.14505 9.07927
head -2.34478 -3.09246 4.22884
rclavicle -1.27719e-014 -6.36111e-015
rhumerus 40.4267 -5.9268 -85.9184
rradius 55.2847
rwrist -33.2235
rhand 1.82472 -25.8023
rfingers 7.12502
rthumb 27.3369 -53.84
lclavicle -1.27719e-014 -6.36111e-015
lhumerus -8.40651 -20.0139 85.9539
lradius 49.5259
lwrist -18.5842
lhand -14.3349 18.1273
lfingers 7.12502
lthumb 11.8062 47.7745
rfemur -11.9096 -0.0790872 29.6521
rtibia 15.9457
rfoot -6.88886 -14.3835
rtoes 21.5662
lfemur -21.4026 -0.394589 -8.3981
ltibia 52.7124
lfoot -0.331247 1.02949
ltoes -16.6213
577
root 1.5457 18.1332 4.90264 452.178 -83.3868 -447.481
lowerback -1.29271 1.28701 10.202
upperback -3.88187 1.69269 3.76754
thorax -3.14564 0.520678 -1.79776
lowerneck -6.67267 -5.15526 -8.9663
upperneck -13.9458 -6.17998 9.1976
head -2.47013 -3.12241 4.27158
rclavicle -1.12313e-014 4.29375e-014
rhumerus 42.1272 -5.93038 -85.8058
rradius 56.386
rwrist -33.2844
rhand 0.601958 -25.6368
rfingers 7.12502
rthumb 26.1668 -53.8534
lclavicle -1.12313e-014 4.29375e-014
lhumerus -7.97148 -20.1727 85.6688
lradius 50.6222
lwrist -18.2055
lhand -14.5176 18.1471
lfingers 7.12502
lthumb 11.63 47.8043
rfemur -11.2127 0.0517494 29.9096
rtibia 15.5805
rfoot -7.20582 -14.4955
rtoes 21.3582
lfemur -22.0708 -0.354435 -8.24228
ltibia 52.1709
lfoot -0.800515 1.43124
ltoes -16.4884
578
root 1.40549 18.1416 4.88283 451.988 -83.2565 -447.263
lowerback -1.32272 1.32721 10.3865
upperback -3.95387 1.7464 3.71393
thorax -3.19426 0.535994 -1.95422
lowerneck -6.54568 -5.17802 -8.91983
upperneck -14.3246 -6.21207 9.31793
head -2.59603 -3.1516 4.3151
rclavicle 7.15625e-015 -1.59028e-014
rhumerus 43.7578 -5.94738 -85.6776
rradius 57.452
rwrist -33.295
rhand -0.594911 -25.4819
rfingers 7.12502
rthumb 25.0204 -53.8633
lclavicle 7.15625e-015 -1.59028e-014
lhumerus -7.55696 -20.2967 85.3789
lradius 51.7173
lwrist -17.8343
lhand -14.6889 18.1678
lfingers 7.12502
lthumb 11.4648 47.8343
rfemur -10.5312 0.177406 30.1579
rtibia 15.2288
rfoot -7.52111 -14.6115
rtoes 21.131
lfemur -22.7055 -0.319226 -8.10224
ltibia 51.5131
lfoot -1.27517 1.82826
ltoes -16.3825
579
root 1.26494 18.1487 4.86336 451.855 -83.135 -447.096
lowerback -1.35614 1.36476 10.5561
upperback -4.02432 1.79596 3.65926
thorax -3.23975 0.549722 -2.10357
lowerneck -6.41645 -5.19831 -8.87264
upperneck -14.7115 -6.2406 9.43875
head -2.7251 -3.17975 4.35944
rclavicle 7.95139e-016 -7.87187e-014
rhumerus 45.3112 -5.97196 -85.5271
rradius 58.4817
rwrist -33.2573
rhand -1.75052 -25.3293
rfingers 7.12502
rthumb 23.9127 -53.8605
lclavicle 7.95139e-016 -7.87187e-014
lhumerus -7.1678 -20.3862 85.0881
lradius 52.8085
lwrist -17.4747
lhand -14.851 18.1816
lfingers 7.12502
lthumb 11.3085 47.8568
rfemur -9.8639 0.29664 30.3975
rtibia 14.8901
rfoot -7.83537 -14.7268
rtoes 20.8864
lfemur -23.3034 -0.286845 -7.97655
ltibia 50.7396
lfoot -1.74749 2.21546
ltoes -16.3039
580
root 1.12409 18.1544 4.84417 451.772 -83.0225 -446.971
lowerback -1.39735 1.39936 10.7091
upperback -4.09165 1.84018 3.60445
thorax -3.2782 0.561599 -2.24377
lowerneck -6.28647 -5.21564 -8.82803
upperneck -15.106 -6.26453 9.56195
head -2.85696 -3.20625 4.40572
rclavicle 1.88348e-014 5.56597e-015
rhumerus 46.7908 -6.00148 -85.351
rradius 59.4774
rwrist -33.1712
rhand -2.86654 -25.1792
rfingers 7.12502
rthumb 22.842 -53.8466
lclavicle 1.88348e-014 5.56597e-015
lhumerus -6.79865 -20.4414 84.7951
lradius 53.8939
lwrist -17.1293
lhand -15.0028 18.1834
lfingers 7.12502
lthumb 11.1621 47.8665
rfemur -9.21535 0.411716 30.6286
rtibia 14.5697
rfoot -8.15 -14.8438
rtoes 20.6212
lfemur -23.869 -0.255807 -7.86438
ltibia 49.8581
lfoot -2.20934 2.58591
ltoes -16.2498
581
root 0.982783 18.1586 4.82532 451.754 -82.9183 -446.906
lowerback -1.44398 1.43125 10.8478
upperback -4.15758 1.8798 3.54908
thorax -3.31271 0.571746 -2.37658
lowerneck -6.15197 -5.22929 -8.78489
upperneck -15.5086 -6.28318 9.68701
head -2.99246 -3.23085 4.45374
rclavicle 8.94531e-015 2.22639e-014
rhumerus 48.1908 -6.03397 -85.1461
rradius 60.4414
rwrist -33.0381
rhand -3.95011 -25.0419
rfingers 7.12502
rthumb 21.8019 -53.8339
lclavicle 8.94531e-015 2.22639e-014
lhumerus -6.45621 -20.4687 84.499
lradius 54.9778
lwrist -16.7971
lhand -15.1404 18.1759
lfingers 7.12502
lthumb 11.0294 47.8661
rfemur -8.58349 0.521408 30.8512
rtibia 14.2678
rfoot -8.46606 -14.9593
rtoes 20.3404
lfemur -24.3987 -0.22504 -7.76485
ltibia 48.872
lfoot -2.6499 2.93517
ltoes -16.1935
582
root 0.841104 18.1613 4.8068 451.819 -82.8211 -446.916
lowerback -1.49545 1.46108 10.9722
upperback -4.22127 1.91569 3.49465
thorax -3.34269 0.58068 -2.50046
lowerneck -6.01505 -5.23967 -8.74357
upperneck -15.9191 -6.29717 9.81232
head -3.13129 -3.25379 4.50303
rclavicle -3.32964e-015 2.38542e-014
rhumerus 49.5131 -6.06795 -84.9076
rradius 61.374
rwrist -32.8579
rhand -5.00796 -24.9105
rfingers 7.12502
rthumb 20.7858 -53.8172
lclavicle -3.32964e-015 2.38542e-014
lhumerus -6.13344 -20.4711 84.1987
lradius 56.0559
lwrist -16.4806
lhand -15.266 18.1598
lfingers 7.12502
lthumb 10.9082 47.8564
rfemur -7.96898 0.624778 31.0667
rtibia 13.9852
rfoot -8.78174 -15.0702
rtoes 20.039
lfemur -24.8932 -0.192751 -7.67586
ltibia 47.7867
lfoot -3.05982 3.25933
ltoes -16.1287
583
root 0.698915 18.1624 4.78866 451.982 -82.7301 -447.018
lowerback -1.55405 1.48952 11.0836
upperback -4.28215 1.94831 3.44157
thorax -3.36621 0.588734 -2.61564
lowerneck -5.87239 -5.24637 -8.70516
upperneck -16.3386 -6.30598 9.93883
head -3.27429 -3.27485 4.5542
rclavicle -4.57205e-015 3.97569e-014
rhumerus 50.7577 -6.10294 -84.633
rradius 62.2757
rwrist -32.6292
rhand -6.02781 -24.7783
rfingers 7.12502
rthumb 19.8056 -53.7892
lclavicle -4.57205e-015 3.97569e-014
lhumerus -5.83177 -20.4515 83.8926
lradius 57.132
lwrist -16.1794
lhand -15.3789 18.1336
lfingers 7.12502
lthumb 10.7993 47.836
rfemur -7.37229 0.724417 31.2759
rtibia 13.7252
rfoot -9.09853 -15.1764
rtoes 19.7155
lfemur -25.354 -0.154665 -7.59603
ltibia 46.6122
lfoot -3.43459 3.55615
ltoes -16.0594
584
root 0.556167 18.1621 4.77091 452.25 -82.6455 -447.221
lowerback -1.61696 1.5168 11.181
upperback -4.3414 1.97848 3.39031
thorax -3.38608 0.596197 -2.72113
lowerneck -5.72398 -5.24966 -8.66931
upperneck -16.7649 -6.31017 10.0649
head -3.42091 -3.2942 4.60666
rclavicle -1.38652e-014 -3.97569e-015
rhumerus 51.9233 -6.13907 -84.3206
rradius 63.1482
rwrist -32.3486
rhand -7.01001 -24.6451
rfingers 7.12502
rthumb 18.8612 -53.7507
lclavicle -1.38652e-014 -3.97569e-015
lhumerus -5.54915 -20.4151 83.58
lradius 58.2047
lwrist -15.8969
lhand -15.4834 18.1018
lfingers 7.12502
lthumb 10.6985 47.8094
rfemur -6.79217 0.818181 31.4774
rtibia 13.4884
rfoot -9.41683 -15.2734
rtoes 19.3727
lfemur -25.7777 -0.113095 -7.52526
ltibia 45.3519
lfoot -3.77614 3.82438
ltoes -15.9981
585
root 0.412984 18.1602 4.75358 452.616 -82.5661 -447.516
lowerback -1.6853 1.54274 11.2663
upperback -4.39792 2.0057 3.34104
thorax -3.40057 0.602909 -2.81776
lowerneck -5.56932 -5.24884 -8.63475
upperneck -17.201 -6.30901 10.1894
head -3.57233 -3.3116 4.66
rclavicle -3.62782e-015 -3.18055e-015
rhumerus 53.0118 -6.176 -83.9651
rradius 63.9931
rwrist -32.0219
rhand -7.95809 -24.5087
rfingers 7.12502
rthumb 17.9492 -53.7004
lclavicle -3.62782e-015 -3.18055e-015
lhumerus -5.28164 -20.3653 83.2574
lradius 59.2742
lwrist -15.6348
lhand -15.5805 18.0587
lfingers 7.12502
lthumb 10.6048 47.7711
rfemur -6.23078 0.905366 31.6717
rtibia 13.2781
rfoot -9.73654 -15.3612
rtoes 19.0064
lfemur -26.1694 -0.0679771 -7.4623
ltibia 44.021
lfoot -4.08288 4.06449
ltoes -15.9449
